<svg width="57" height="43" viewBox="0 0 57 43" fill="none" xmlns="http://www.w3.org/2000/svg">
<path fill-rule="evenodd" clip-rule="evenodd" d="M25.3466 1.3861H29.9867V0H25.3466V1.3861ZM25.3466 3.58048H29.9867V2.21722H25.3466V3.58048ZM33.5879 15.8713L28.7227 20.8049L30.1466 22.2488L33.5879 18.757V15.8713ZM33.5879 11.7916L30.1714 14.7123V17.1714L33.5879 13.7058V11.7916ZM30.1714 9.71479V12.6173C31.1204 11.672 33.3266 10.2053 33.3266 10.2053L33.4697 10.0863L30.1714 9.71479ZM33.5879 5.95895H21.7487V8.61155L25.1847 8.22454V8.2232H26.6622V18.716L27.6562 19.7239L28.6939 18.6703V8.22186H30.1714V8.22454L33.5879 8.60954V5.95895ZM25.1847 12.5475V9.71411L21.83 10.0931L22.0382 10.1656C22.0382 10.1656 24.2142 11.6008 25.1847 12.5475ZM21.7487 13.7313L25.1847 17.2171V14.6451L21.7487 11.7304V13.7313ZM21.7487 18.7805L25.1672 22.2475L26.589 20.8049L21.7487 15.8961V18.7805ZM35.0681 14.3703L35.0654 14.3723V19.3778H35.0251L35.0674 19.4215L30.1701 24.3894L30.1029 24.3222L30.0787 24.3458L27.6562 21.888L25.1894 24.3894L25.1236 24.3229L25.1014 24.3464L20.2873 19.4625L20.3746 19.3738H20.2907V14.4166L20.2867 14.4133L20.2907 14.4086V10.2664H20.2867V8.77482H20.2907V4.4808H35.0661V14.3662L35.0674 14.3696L35.0681 14.3703Z" fill="#3D50DF"/>
<path fill-rule="evenodd" clip-rule="evenodd" d="M54.6497 35.3951L52.5791 38.7075L50.5085 35.3951H48.7648V42.8509H50.5085V38.5159L52.4809 41.6793H52.6769L54.6497 38.5159V42.8509L56.3934 41.2012V35.3951H54.6497ZM44.7341 39.8899H47.4589V38.2709H44.7341V37.0353H47.7314V35.3951H42.9904V42.8509H47.7858V41.2106H44.7341V39.8899ZM36.5626 37.0353H38.524V42.8509H40.268V37.0353H42.2294V35.3951H36.5626V37.0353ZM32.598 41.3386C31.3559 41.3386 30.3748 40.4545 30.3748 39.123C30.3748 37.7918 31.3559 36.9077 32.598 36.9077C33.8405 36.9077 34.8212 37.7918 34.8212 39.123C34.8212 40.4545 33.8405 41.3386 32.598 41.3386ZM32.598 35.2459C30.4075 35.2459 28.6314 36.9289 28.6314 39.123C28.6314 41.3174 30.4075 43 32.598 43C34.7889 43 36.565 41.3174 36.565 39.123C36.565 36.9289 34.7889 35.2459 32.598 35.2459ZM28.6328 35.3951H22.9656V37.0353H24.9277V42.8509H26.6711V37.0353H28.6328V35.3951ZM20.3958 41.253H18.9353V39.8263H20.3958C20.8316 39.8263 21.1147 40.1242 21.1147 40.5397C21.1147 40.9551 20.8316 41.253 20.3958 41.253ZM18.9353 36.9929H20.1778C20.5811 36.9929 20.8426 37.2696 20.8426 37.6531C20.8426 38.0365 20.5701 38.3136 20.1778 38.3136H18.9353V36.9929ZM21.9215 38.9846C22.3355 38.6331 22.5863 38.1433 22.5863 37.5255C22.5863 36.2367 21.5074 35.3951 20.1778 35.3951H17.1919V42.8509H20.3958C21.7582 42.8509 22.8588 41.988 22.8588 40.6676C22.8588 39.9114 22.4881 39.3361 21.9215 38.9846ZM13.1612 39.8899H15.886V38.2709H13.1612V37.0353H16.1581V35.3951H11.4175V42.8509H16.2126V41.2106H13.1612V39.8899ZM7.50845 40.6141L6.03721 35.3951H4.62074L3.14916 40.6141L1.83087 35.3951H0L2.103 42.8509H4.08647L5.32898 38.452L6.57149 42.8509H8.55495L10.658 35.3951H8.82743L7.50845 40.6141Z" fill="#1D293F"/>
</svg>
